<svg xmlns="http://www.w3.org/2000/svg" viewBox="0 0 200 60" fill="none">
  <!-- Dragon mark -->
  <g transform="translate(4, 4)">
    <!-- Body -->
    <path d="M16 28 C10 22 8 14 14 10 C18 7 24 9 26 14 C28 10 34 8 38 12 C44 18 40 28 34 30 L36 40 C36 44 32 48 28 48 C24 48 20 44 20 40 Z" fill="#dc2d2f"/>
    <!-- Wing left -->
    <path d="M14 18 C8 14 2 18 4 26 C6 30 12 30 16 26 Z" fill="#dc2d2f" opacity="0.85"/>
    <!-- Wing right -->
    <path d="M38 16 C44 12 50 16 48 24 C46 28 40 28 36 24 Z" fill="#dc2d2f" opacity="0.85"/>
    <!-- Head -->
    <circle cx="28" cy="9" r="6" fill="#dc2d2f"/>
    <!-- Eye -->
    <circle cx="30" cy="8" r="1.5" fill="white"/>
    <!-- Tail -->
    <path d="M28 48 C30 52 26 56 22 54 C18 52 20 46 24 46" stroke="#dc2d2f" stroke-width="2.5" fill="none" stroke-linecap="round"/>
    <!-- Claws -->
    <path d="M20 42 L16 46 M20 42 L18 47 M20 42 L22 47" stroke="#dc2d2f" stroke-width="1.5" stroke-linecap="round"/>
    <path d="M36 42 L40 46 M36 42 L38 47 M36 42 L34 47" stroke="#dc2d2f" stroke-width="1.5" stroke-linecap="round"/>
  </g>
  <!-- CQG wordmark -->
  <text x="66" y="40" font-family="'DM Sans', 'Helvetica Neue', Arial, sans-serif" font-size="28" font-weight="700" fill="#dc2d2f" letter-spacing="-0.5">CQG</text>
  <!-- Tagline -->
  <text x="67" y="53" font-family="'DM Sans', 'Helvetica Neue', Arial, sans-serif" font-size="8.5" font-weight="500" fill="#666666" letter-spacing="1.5">CYMRU QUARRY GROUP</text>
</svg>
